<svg width="580" height="400" xmlns="http://www.w3.org/2000/svg">
 <!-- Created with Method Draw - http://github.com/duopixel/Method-Draw/ -->
 <g>
  <title>background</title>
  <g display="none" overflow="visible" y="0" x="0" height="100%" width="100%" id="canvasGrid">
   <rect fill="url(#gridpattern)" stroke-width="0" y="0" x="0" height="100%" width="100%"/>
  </g>
 </g>
 <g>
  <title>Layer 1</title>
  <path id="svg_18" d="m427.031403,185.487244c-14.62088,-2.618866 -29.836792,-4.348389 -42.209595,-4.812836l-2.173096,-0.078613c0.500641,-1.166061 0.87262,-1.947296 1.002686,-2.065308c0.259918,-0.237488 0.481934,-1.225906 0.500977,-2.174286c0,-0.533844 0.223419,-2.262787 0.557953,-4.536102c3.362793,0.128647 7.802338,0.22757 12.652405,0.266998c18.708679,0.15802 38.289642,1.769073 51.720764,4.288895c7.990295,1.501831 10.627441,1.452698 4.738434,-0.078781c-5.981873,-1.542007 -23.705231,-3.804871 -37.844971,-4.793152c-9.473755,-0.681641 -23.073944,-0.938766 -31.081421,-0.800201c0.224243,-1.472473 0.48288,-3.122635 0.780884,-4.803085c1.133881,-6.521973 1.504181,-13.073624 1.524017,-26.117905c0.017609,-20.227928 -1.003967,-25.80159 -7.190643,-39.181572c-2.526337,-5.464737 -5.369415,-10.099251 -8.825592,-14.299515c3.010315,-9.436783 2.936462,-24.062336 -0.166595,-36.88866c-2.582184,-10.514496 -3.474091,-11.18671 -12.44632,-9.170582c-7.599762,1.728951 -13.67511,4.071167 -21.477936,8.250954c-3.696106,1.98671 -8.787659,5.069946 -12.466675,7.490898c-9.623047,-3.596844 -19.581726,-5.988297 -30.188385,-7.263336c-10.758148,-1.294636 -37.157654,-0.573044 -46.5224,1.264572c-9.140121,1.799091 -17.388763,4.002342 -24.857101,6.621147c-3.715286,-2.450432 -9.121719,-5.751389 -12.98555,-7.826553c-7.840149,-4.189789 -13.934616,-6.522106 -21.551743,-8.251148c-8.936798,-2.025906 -9.865097,-1.343864 -12.410461,9.170563c-3.176346,12.994469 -3.195694,27.867069 -0.073761,37.284374c0.371002,1.067024 0.593964,1.837669 0.667892,2.430595c-12.68895,16.997047 -16.813293,36.009796 -14.064392,62.542854c0.706406,6.917435 1.821518,13.271622 3.363342,19.082062c-8.10083,-0.049057 -19.61824,0.257156 -27.923187,0.830475c-14.156868,0.997528 -31.881111,3.241364 -37.862373,4.782562c-5.890762,1.521729 -3.270744,1.581436 4.735672,0.089279c13.433891,-2.510117 33.034447,-4.150421 51.723778,-4.288818c3.529205,-0.009995 6.835663,-0.089142 9.679413,-0.167892c0.835526,3.072876 1.819733,5.998093 2.935623,8.784805l-0.094284,0.009781c-12.354416,0.454636 -27.570541,2.174301 -42.190247,4.792786c-10.961983,1.956314 -27.16288,5.870041 -29.057045,6.996048c-1.969765,1.176193 -0.353058,0.919617 8.136971,-1.373306c15.494621,-4.170181 35.651489,-7.372025 60.622055,-9.605331l2.786362,-0.256607c5.350525,13.241791 13.600067,23.340973 25.266296,31.216675c7.134491,4.832458 18.579224,9.793091 24.338776,10.574066c1.578537,0.207382 6.184937,1.215347 10.217072,2.223557c4.051239,1.007446 11.98439,2.529587 17.613068,3.398819l0.130585,0c-0.111465,0.069519 -0.205811,0.12854 -0.298019,0.198013c-6.818466,3.774628 -11.258652,9.644577 -14.248795,18.874252c-1.337967,0.425034 -2.991837,1.007996 -4.793671,1.669785c-6.446777,2.332443 -8.95549,2.816528 -15.476074,2.866272c-6.781906,0.04924 -8.379166,-0.257065 -12.42923,-2.28302c-5.871658,-2.91478 -11.351135,-8.270844 -15.011963,-14.674805c-6.092834,-10.691986 -16.644989,-18.261673 -25.432785,-18.261673c-7.506378,0 -8.93692,3.241333 -3.512115,7.965027c8.192917,7.115158 14.305511,14.368515 16.814316,19.911957c1.411682,3.10289 3.566559,7.915756 4.829529,10.672485c1.319702,2.934998 4.161942,6.92746 6.855743,9.684662c6.371323,6.452759 12.503616,9.535828 21.662262,10.988586c6.13205,0.958313 7.636383,0.958313 14.882629,-0.03006c3.492661,-0.454468 6.445877,-0.987762 9.08345,-1.64035c0,3.152557 0,6.798828 0,11.068024c0,22.876556 -0.259201,30.238739 -1.114014,32.383362c-1.598526,4.090912 -5.202377,8.30072 -8.712753,10.197662c-3.492554,1.887482 -4.57106,3.972748 -3.102417,5.889832c0.816132,1.037598 2.39621,1.215332 7.653137,0.859711c10.013428,-0.662384 17.093384,-4.604919 20.69577,-11.542053c1.153091,-2.233368 1.412872,-6.709869 1.784653,-30.031403c0.390274,-25.287598 0.556595,-27.728821 2.11731,-31.345215c0.929489,-2.144775 2.285599,-4.47641 3.028824,-5.109314c1.281967,-1.116425 1.356812,1.087372 1.356812,31.345642c-0.019913,33.390869 -0.335251,37.412872 -3.475204,43.836548c-0.705399,1.472321 -2.043625,3.369171 -2.9729,4.2789c-1.653046,1.590637 -2.339447,5.67218 -1.188034,6.907013c1.876266,1.986816 11.333191,-1.146332 16.497711,-5.4646c8.788116,-7.411438 9.846954,-13.538147 9.92099,-57.78952l0.03772,-25.949997l2.655731,0.266891l2.675598,0.257187l0.426849,33.954086c0.50177,38.223358 0.575592,38.776886 6.688477,46.158356c3.474152,4.170074 6.967255,6.482574 12.652313,8.281158c7.617218,2.431305 9.901642,-1.324249 4.793365,-7.836365c-5.573425,-7.08493 -5.833862,-9.792938 -5.536469,-51.732056c0.204071,-26.888458 0.204071,-26.888458 1.838013,-25.327454c3.43808,3.320618 4.088806,8.756012 4.088806,33.97467c0,31.32547 0.835297,34.299835 11.238434,39.764618c4.868195,2.529846 6.224243,2.836212 12.448517,2.865601c6.61377,0.029633 7.023407,-0.078827 7.264526,-1.917206c0.204071,-1.491974 -0.613953,-2.500122 -3.696777,-4.505798c-4.051056,-2.658142 -6.874664,-6.047852 -8.640228,-10.326874c-0.66925,-1.640381 -1.113861,-12.42157 -1.411987,-34.606262c-0.445068,-30.999527 -0.537476,-32.403107 -2.358948,-37.265167c-2.451904,-6.531799 -6.187469,-11.680008 -10.922913,-15.09906c-1.227478,-0.859879 -2.454071,-1.571518 -4.0513,-2.10524c1.95105,-0.207291 3.864807,-0.425003 5.704376,-0.711014c19.134949,-2.708237 29.261108,-4.961151 37.379578,-8.300827c17.166962,-7.036255 28.795471,-18.716904 35.075531,-35.278671c0.57608,-1.482224 1.13324,-2.876038 1.597656,-4.002075l4.849915,0.424332c24.968567,2.243729 45.126465,5.435349 60.620941,9.625137c8.50882,2.292862 10.124969,2.559769 8.137909,1.353699c-1.858429,-1.096603 -18.039429,-4.999695 -29.002045,-6.946564zm-73.23587,-0.405151c-2.824005,6.631012 -10.73822,15.148773 -17.129669,18.498901c-6.316772,3.310425 -16.200165,5.84021 -27.402283,7.045609c-7.655304,0.830368 -50.367462,1.067062 -57.427139,0.335846c-23.334229,-2.440521 -36.413452,-7.21347 -46.055618,-16.789261c-9.121582,-9.091095 -13.394791,-21.433548 -12.651672,-36.632324c0.482483,-9.506165 2.638504,-15.474762 8.266663,-22.72821c5.12793,-6.60144 10.53421,-10.682335 16.888107,-12.757599c5.313446,-1.739227 21.644424,-1.88752 43.604263,-0.385574c9.69809,0.652039 17.724152,0.652039 27.401978,0c22.964478,-1.541374 38.291779,-1.373405 43.957611,0.484001c8.899231,2.935066 17.018097,10.811073 21.885468,21.295799c2.192291,4.694305 2.620056,6.690048 2.935394,13.923767c0.427643,9.980591 -1.188202,20.574387 -4.273102,27.709045zm-115.781219,-42.818573c-13.060959,-2.440567 -20.529175,21.354843 -10.514618,33.509628c4.774796,5.7612 8.991501,6.69989 14.286407,3.211838c4.886185,-3.251221 7.542099,-9.32869 7.542099,-17.204453c0,-10.504684 -4.495453,-18.222366 -11.313889,-19.517014zm79.293457,1.423096c-13.060181,-2.441025 -20.530151,21.335251 -10.515442,33.490005c4.774506,5.770462 8.991516,6.729248 14.286652,3.201385c4.885529,-3.241486 7.542023,-9.328506 7.542023,-17.19455c0,-10.475067 -4.495941,-18.212448 -11.313232,-19.496841zm-35.132141,46.780823c-0.278442,0.958878 -1.635437,2.3815 -3.02832,3.152191c-3.47464,1.897446 -5.983124,1.245575 -9.661133,-2.321793c-2.265533,-2.184174 -3.306549,-3.340454 -3.993835,-1.047516c-0.650574,2.124496 3.399628,6.383667 6.521484,7.688202c2.878601,1.22522 4.941162,1.264496 8.06192,-0.128433c3.08432,-1.374039 5.796692,-5.059448 5.796692,-7.461395c0,-2.223419 -3.010132,-2.124435 -3.696808,0.118744zm-3.86557,-7.440933c1.988525,-1.868011 2.434967,-5.701721 0.539246,-7.737534s-5.759003,-1.719604 -7.263031,0.553619c-1.765747,2.668137 -0.818024,4.703445 0.427551,6.867828c1.951111,1.610733 4.569,1.926956 6.296234,0.316086z" fill-opacity="null" stroke-opacity="null" stroke-width="1.5" stroke="#ffffff" fill="#cc787d"/>
 </g>
</svg>