<svg width="580" height="400" xmlns="http://www.w3.org/2000/svg">
 <!-- Created with Method Draw - http://github.com/duopixel/Method-Draw/ -->
 <g>
  <title>background</title>
  <g display="none" overflow="visible" y="0" x="0" height="100%" width="100%" id="canvasGrid">
   <rect fill="url(#gridpattern)" stroke-width="0" y="0" x="0" height="100%" width="100%"/>
  </g>
 </g>
 <g>
  <title>Layer 1</title>
  <path id="svg_16" d="m299.986359,62.259964c-8.72406,3.226563 -16.68576,7.526466 -24.708252,11.359695c-2.733765,1.304756 -5.841095,3.380104 -8.376282,4.01474c-6.45752,1.610809 -16.562378,-1.20726 -24.795624,-1.500717c-20.57373,-0.730148 -33.89653,0.783493 -50.809891,3.333237c-7.91655,1.191124 -16.111191,2.307091 -23.058716,4.343529c-5.935837,1.740311 -12.74028,5.631645 -19.380112,8.902878c-10.494644,5.172089 -17.644302,10.042236 -25.826569,16.276978c-13.677048,10.415604 -22.286591,23.526253 -32.29538,37.932747c-4.36908,6.287308 -10.664543,15.656296 -10.977539,23.096237c-5.785767,8.767426 -14.574478,14.121658 -16.779472,26.955963c3.079964,7.505417 11.070969,0.832184 15.883957,-1.668091c3.981041,-2.07254 8.265846,-4.549545 11.792976,-5.542908c18.334778,-5.169693 43.886963,2.218475 61.738754,-2.516815c6.327072,-1.677658 11.809357,-5.064087 18.094513,-6.497681c5.970703,-1.365952 10.536255,1.052795 14.793396,2.889801c2.261276,0.978943 4.64061,2.304733 6.69545,3.359161c13.301575,6.872284 26.595306,14.160049 44.452118,16.903656c14.332306,2.198914 26.78476,-1.996597 38.43396,-4.264908c2.957581,-0.576248 6.777802,-0.365997 9.021759,-2.891434c-9.297974,-2.099915 -17.016052,-5.681473 -26.726074,-9.506256c-12.755707,-5.016281 -22.663208,-8.411255 -27.485931,-18.484009c5.71109,-1.494217 12.321533,-0.386688 18.265137,0.654831c6.488892,1.131836 12.930115,2.195496 19.156708,3.219223c26.294556,4.329163 46.097107,11.595795 66.11319,21.023926c9.725708,4.574387 18.684906,10.948486 26.927734,16.297623c16.879089,10.969788 31.28714,24.59079 44.876984,39.431549c6.151672,6.718613 11.64679,15.131882 18.317902,23.150345c2.913696,3.505676 5.845551,7.417419 8.961365,11.746735c2.978638,4.112823 7.522247,9.153473 8.151245,12.751556c0.710632,3.973236 -1.399872,8.329102 -2.462646,12.671509c-1.835876,7.542084 -3.189941,15.632751 -2.573853,23.375824c0.802948,10.016479 3.042053,19.772156 7.73645,27.360596c2.034729,-1.810608 2.867371,-4.998322 3.915344,-7.918182c5.145081,-6.5755 11.990845,-13.142517 12.160858,-24.085693c14.050629,7.262115 41.346954,6.653076 57.73642,6.464142c4.927185,-0.057068 9.946289,0.464447 14.026062,-1.45105c-8.606873,-4.989655 -14.926086,-11.302063 -22.407471,-17.747406c-11.319092,-9.737915 -20.681274,-17.941956 -37.36853,-23.151886c-5.407349,-1.688446 -11.600128,-2.601959 -14.565033,-5.731323c-2.278259,-2.394043 -2.971771,-7.69696 -4.127075,-12.806244c-3.107819,-13.810547 -7.148376,-28.464294 -10.756378,-40.087708c-10.819794,-34.937836 -27.334503,-65.98967 -49.308563,-90.103912c-11.134491,-12.229156 -24.431366,-22.187805 -38.768127,-33.260475c-2.450592,-3.841759 -7.039581,-9.023087 -7.988739,-14.879257c-0.968079,-6.030891 0.778809,-11.322952 4.506989,-15.374535c8.151367,-5.949089 20.962891,-6.606712 26.500916,-15.512245c-7.241394,-5.211788 -16.227264,-6.739937 -25.044678,-7.592934c-19.048798,-1.842678 -36.893188,-0.411278 -51.66925,5.059189z" fill-opacity="null" stroke-opacity="null" stroke-width="1.5" stroke="#ffffff" fill="#cc787d"/>
 </g>
</svg>