<svg width="580" height="400" xmlns="http://www.w3.org/2000/svg">
 <!-- Created with Method Draw - http://github.com/duopixel/Method-Draw/ -->

 <g>
  <title>background</title>
  <g display="none" overflow="visible" y="0" x="0" height="100%" width="100%" id="canvasGrid">
   <rect fill="url(#gridpattern)" stroke-width="0" y="0" x="0" height="100%" width="100%"/>
  </g>
 </g>
 <g>
  <title>Layer 1</title>
  <path id="svg_38" d="m102.278847,169.422028c-1.362228,2.928543 -2.315781,4.46582 -6.949905,6.001205c-0.818901,0.418365 0.271736,1.395203 0.81868,1.255249c4.087021,-1.673752 5.040596,-3.070801 6.950111,-6.141388c0.953796,3.909271 3.132896,6.421417 6.813095,7.956726l0.273743,-0.838699c5.042412,2.792435 8.857475,3.350983 12.127213,2.652267c3.135025,-0.698471 6.813248,-1.255173 9.813248,-0.836716c-1.907547,-1.535355 -3,-3.350723 -3.406784,-5.582825c3.133194,-3.350754 9.26622,-2.093735 12.264267,-4.047485l-0.682037,-1.537262c6.541473,-2.231995 12.129044,-5.861191 19.896225,-4.74408l-12.80957,-9.492218l0.271896,-1.257034c-3.815094,-2.93042 -8.175644,-3.62915 -13.082977,-1.673599c1.635605,-4.88588 0,-10.188812 4.498947,-13.957718c-1.09053,-2.093918 0,-5.024277 1.907516,-7.676712c0.273727,-5.024338 1.634094,-9.491241 4.086945,-13.538635c-3.952087,2.65226 -7.902054,5.024292 -11.990662,7.119049l-0.68219,-1.536186c-1.633972,2.653069 -3.951782,4.606781 -7.086639,5.721977l-0.545334,-1.535347c-4.225349,4.327583 -9.265923,6.5597 -12.400955,12.84272c0.953766,-6.143066 -0.81871,-12.144188 -3.271561,-17.02935l-0.953812,0.977692c-1.77063,-6.00206 -8.038536,-9.9105 -11.990685,-14.7957c1.634186,13.399429 -3.136536,15.074028 -2.997993,22.47245l-1.637558,0.138123c2.317947,7.538284 -0.817108,11.02742 0.681931,16.19191c-3.815056,-1.953873 -8.722588,-0.558563 -11.992264,-3.629333c3.951775,6.421585 5.315933,14.236298 11.992264,19.540802l-0.953522,0.418564c2.452454,2.790375 5.587547,5.164246 11.038368,6.561554z" stroke-opacity="null" stroke-width="1.5" stroke="null" fill="#416d0f"/>
  <path transform="rotate(-82.9003, 191.791, 255.242)" id="svg_39" d="m177.847717,274.902405c-1.059937,2.278687 -1.80188,3.474792 -5.407654,4.669495c-0.637177,0.3255 0.211441,1.085571 0.636993,0.976685c3.180115,-1.302307 3.922058,-2.389343 5.407837,-4.778564c0.742157,3.041779 2.437683,4.99646 5.301239,6.191071l0.212982,-0.652588c3.923462,2.17276 6.891937,2.607361 9.436096,2.06369c2.439331,-0.543457 5.301331,-0.976624 7.63559,-0.651001c-1.484222,-1.194702 -2.334259,-2.607178 -2.650787,-4.343994c2.437897,-2.607178 7.209961,-1.629089 9.542725,-3.149292l-0.530701,-1.196136c5.089905,-1.736725 9.437531,-4.560547 15.48114,-3.691315l-9.967041,-7.385834l0.211548,-0.978088c-2.968475,-2.280151 -6.361389,-2.823822 -10.179749,-1.302216c1.272644,-3.801666 0,-7.927841 3.50058,-10.860397c-0.848541,-1.629257 0,-3.909348 1.484222,-5.97319c0.213013,-3.909393 1.271484,-7.385056 3.180023,-10.534286c-3.075073,2.06369 -6.148529,3.909348 -9.329834,5.539261l-0.530823,-1.195297c-1.271362,2.064331 -3.074829,3.584518 -5.514038,4.452225l-0.424316,-1.194641c-3.28772,3.367264 -7.209747,5.104065 -9.649078,9.992844c0.742096,-4.779892 -0.637054,-9.44931 -2.545593,-13.250427l-0.742157,0.760742c-1.377686,-4.670151 -6.2547,-7.711288 -9.329865,-11.512421c1.271576,10.425995 -2.440491,11.728989 -2.332687,17.485641l-1.274185,0.107483c1.803589,5.865463 -0.635788,8.580338 0.530609,12.598785c-2.96846,-1.520294 -6.786972,-0.434601 -9.331085,-2.823959c3.074844,4.996597 4.136292,11.077133 9.331085,15.204544l-0.741928,0.325653c1.908234,2.171204 4.347641,4.018311 8.588852,5.10553z" stroke-opacity="null" stroke-width="1.5" stroke="null" fill="#416d0f"/>
 </g>
</svg>