<svg width="580" height="400" xmlns="http://www.w3.org/2000/svg">
 <!-- Created with Method Draw - http://github.com/duopixel/Method-Draw/ -->
 <g>
  <title>background</title>
  <g display="none" overflow="visible" y="0" x="0" height="100%" width="100%" id="canvasGrid">
   <rect fill="url(#gridpattern)" stroke-width="0" y="0" x="0" height="100%" width="100%"/>
  </g>
 </g>
 <g>
  <title>Layer 1</title>
  <path id="svg_17" d="m218.333893,363.092102c-11.780243,-5.311554 3.586182,-15.925293 9.403992,-20.621368c3.921997,-3.6185 -22.45491,0.5065 -11.319183,-12.048584c12.216248,-10.257019 7.602539,-27.608429 -4.608765,-35.674988c-16.805984,-11.345795 -38.369873,-21.058228 -44.575302,-42.246307c-6.281952,-13.197906 8.606186,-27.097748 -0.972183,-39.014648c-7.701797,-15.474945 1.296799,-31.610062 6.897247,-45.942871c2.578293,-19.829697 -13.198135,-35.510025 -21.866287,-51.801605c-10.739426,-15.566193 -16.927429,-33.705032 -17.810745,-52.608543c-2.343033,-8.068802 0.244461,-20.599388 9.570358,-9.721741c19.527573,15.635635 40.961243,30.470345 54.631302,51.872597c2.58725,7.731491 12.943268,30.133575 13.518646,9.846939c0.272705,-27.887482 8.789368,-58.297829 30.611267,-76.984917c14.844147,-13.52552 22.851624,10.156395 23.538391,22.191574c3.864716,23.680428 -2.532928,47.161461 -9.676483,69.531822c-2.615112,10.395416 -9.440979,38.880295 10.021057,28.378189c44.825012,-17.309067 99.136841,0.869537 128.332703,38.048309c13.42514,18.001984 19.301025,41.126495 19.171387,63.334229c-6.906616,13.047668 18.770599,-0.243256 9.45816,14.808044c-5.474121,16.672974 -20.950684,25.718628 -31.792084,38.305328c-11.029175,10.082764 -2.841705,31.645386 -21.085999,34.824554c-26.622711,8.20462 -54.574951,11.798401 -82.289642,13.890808c-15.504059,3.17691 -23.034821,-14.553467 -8.164124,-21.928406c7.124939,-10.981995 27.509369,-11.752228 33.568024,-13.49411c-14.472412,1.416687 -32.327637,-4.490631 -44.52121,4.473267c-7.393341,11.992126 -13.305084,27.775208 -28.795166,31.199432c-6.959869,1.931854 -14.121063,3.479858 -21.245361,1.382996l0,0z" fill-opacity="null" stroke-opacity="null" stroke-width="1.5" stroke="#ffffff" fill="#cc787d"/>
 </g>
</svg>