<svg width="580" height="400" xmlns="http://www.w3.org/2000/svg">
 <!-- Created with Method Draw - http://github.com/duopixel/Method-Draw/ -->

 <g>
  <title>background</title>
  <g id="canvasGrid" display="none">
   <rect id="svg_1" width="100%" height="100%" x="0" y="0" stroke-width="0" fill="url(#gridpattern)"/>
  </g>
 </g>
 <g>
  <title>Layer 1</title>
  <path id="svg_2" d="m314.299438,352.255096c-6.143799,-8.400848 -15.690155,-9.359375 -17.99057,-21.316589c-1.800262,-6.50412 -18.771545,-15.227692 -8.728485,-3.552643c7.757477,7.033691 16.974792,32.980164 -2.109985,24.782318c-14.509613,-5.325775 -15.133575,-21.772034 -19.024994,-34.084045c-12.646362,-8.777832 3.271698,-27.334106 -10.345673,-38.580688c-11.562958,-11.73761 -3.514771,-33.722382 -20.029968,-42.04567c-8.290909,-3.364868 -11.880127,19.869522 -13.273605,2.871292c-4.545135,-17.191452 -20.585953,8.356689 -31.286331,5.649017c-8.627518,-0.75177 14.439224,-6.751877 3.432571,-8.366043c-6.476318,3.542358 -12.459702,9.670395 -13.490463,-0.472412c-7.783386,-4.623795 -24.11528,-12.009415 -23.685974,-19.356598c6.759674,-2.124359 29.583221,4.022263 25.635635,-4.518158c-6.789932,-2.576279 -8.022354,-9.617416 0.291321,-4.892761c16.384628,0.514359 35.592712,-6.025208 49.220871,6.484543c7.111328,4.375427 14.102905,20.0672 17.912506,4.816956c12.272888,-14.800079 37.034332,-16.054947 44.597565,-35.21846c1.829376,-9.271469 -5.624817,-14.561111 -11.951508,-16.439682c-1.232544,-3.0466 -3.331787,-15.983047 -8.567963,-9.455688c0.243073,-5.713318 5.15451,-19.376099 -5.725189,-13.327621c-1.105347,-12.170776 9.300018,-24.311798 -4.466736,-33.173576c12.895935,2.393089 10.356567,-12.308075 7.547882,-14.638519c7.637909,-1.086075 16.612335,-7.964645 12.395905,-16.486465c8.302368,15.070015 8.590332,-18.28196 15.424713,-3.906616c12.578735,2.062508 -3.906464,-11.237259 7.664185,-8.268883c6.603149,0.226891 5.131439,-7.237152 11.069946,-1.605087c7.850891,-4.285774 -6.024628,-17.236061 6.658966,-8.237114c4.265289,3.703072 17.833984,13.402451 15.402618,0.604012c12.048248,12.852592 21.530853,-11.941143 31.543793,-17.074543c3.973938,-4.752541 12.612579,-9.780613 4.642456,-0.710613c-5.288544,11.563065 -23.226501,24.07003 -18.397461,35.55838c-4.373383,3.976608 8.813965,8.975639 -1.684662,7.470436c-6.217926,6.710625 8.336121,19.267914 9.497772,29.830009c-3.335236,7.237213 -16.026093,15.452789 -21.161346,15.193375c1.878418,-9.317505 -2.188599,-21.462234 -14.072968,-16.196045c6.659088,12.180145 15.656738,23.815796 21.295959,37.061508c5.508698,13.020386 14.442291,28.055832 26.203522,11.298706c7.492249,-10.67981 28.896454,-10.525726 23.017731,6.818817c-3.006592,17.03363 5.038513,39.512497 -10.424164,51.245575c-9.329285,17.975586 -19.671356,-6.682663 -12.343109,-16.011383c-1.867737,-2.665619 -3.309235,-4.548981 2.154449,-8.192215c-1.123657,-2.732056 15.727539,-13.016785 7.234863,-19.327789c-9.665802,10.956284 -23.798431,23.63678 -19.869324,39.921478c3.185425,10.913162 -23.114777,29.621857 -21.008392,11.511505c0.470459,-7.03891 10.517029,-20.680374 8.201324,-22.437592c-7.331299,13.76564 -17.766357,26.991455 -33.538666,31.079178c-13.120483,0.775894 -19.992371,11.338211 -13.75882,23.057907c1.1875,16.606903 -7.578064,31.636719 -9.594818,47.805725c3.749847,17.14917 26.588165,20.615387 29.69223,38.106964c5.328796,11.748993 -8,10.014038 -14.207611,6.7258l0,0zm-32.481873,-51.161682c-1.922913,-7.751434 -5.878571,20.151245 -1.000854,5.34082l0.728424,-2.615234l0.27243,-2.725586l0,0z" stroke-opacity="null" stroke-width="1.5" stroke="null" fill="#ffaaaa"/>
 </g>
 <g>
  <title>background</title>
  <rect fill="none" id="canvas_background" height="402" width="582" y="-1" x="-1"/>
 </g>
</svg>