<svg width="580" height="400" xmlns="http://www.w3.org/2000/svg">
 <!-- Created with Method Draw - http://github.com/duopixel/Method-Draw/ -->
 <g>
  <title>background</title>
  <g display="none" overflow="visible" y="0" x="0" height="100%" width="100%" id="canvasGrid">
   <rect fill="url(#gridpattern)" stroke-width="0" y="0" x="0" height="100%" width="100%"/>
  </g>
 </g>
 <g>
  <title>Layer 1</title>
  <path id="svg_2" d="m445.156952,247.324005c9.548889,-8.424316 18.679871,-18.137253 26.724396,-26.855453l-241.039169,-4.000565l-33.063217,34.451477l-104.741829,-2.957504c13.123062,-15.687775 27.499084,-34.11322 38.159279,-47.953384l-37.915092,-46.531921l111.756416,0l22.739319,29.074753l246.097275,0l-30.529144,-29.007065c9.421326,-9.142395 23.365417,-21.341751 30.92868,-27.737701l82.763794,73.928955l-82.951111,75.074951l-28.929596,-27.486542l0,0z" stroke-width="1.5" stroke="#000" fill="#000000"/>
  <path id="svg_3" d="m331.787323,142.949036c41.381866,-118.721003 203.523468,0 0,152.641754c-203.521545,-152.641754 -41.380615,-271.362757 0,-152.641754z" stroke-width="1.5" stroke="#ffffff" fill="#e81728"/>
 </g>
</svg>