<svg width="580" height="400" xmlns="http://www.w3.org/2000/svg">
 <!-- Created with Method Draw - http://github.com/duopixel/Method-Draw/ -->
 <g>
  <title>background</title>
  <g display="none" overflow="visible" y="0" x="0" height="100%" width="100%" id="canvasGrid">
   <rect fill="url(#gridpattern)" stroke-width="0" y="0" x="0" height="100%" width="100%"/>
  </g>
 </g>
 <g>
  <title>Layer 1</title>
  <path id="svg_15" d="m362.255005,91.58287c0,0 0,-8.862747 3.618195,-14.600052c2.070374,-3.24176 8.685913,-4.890091 8.685913,-4.890091c0,0 7.107513,-2.382851 15.719177,-1.875862c6.667328,0.390656 15.292969,3.684769 15.292969,3.684769c0,0 9.533142,0.217346 12.803253,4.672295c3.995514,5.474579 -2.31012,11.862053 -2.31012,11.862053c0,0 0.835602,3.727097 4.052521,6.859154c2.649292,2.573303 7.804932,4.702332 7.804932,4.702332c0,0 0.977112,0.646736 1.712524,1.878319c0.647705,1.1231 1.025208,2.880569 1.025208,2.880569c0,0 3.175659,2.117599 3.396942,4.744064c0.243347,2.805977 -2.481323,6.139442 -2.481323,6.139442c0,0 -1.238647,5.186302 -3.496704,8.930588c-1.453186,2.431686 -4.271271,3.986526 -4.271271,3.986526c0,0 -6.458466,4.942444 -14.345856,6.084732c-5.966003,0.859924 -13.93277,-2.002655 -13.93277,-2.002655c0,0 4.091858,11.66835 3.631836,23.556915c0.653717,18.657791 -14.964508,34.406418 -21.64621,55.420837c-2.360382,6.330948 -0.907196,13.688919 -0.907196,13.688919c0,0 -0.676239,18.468826 -3.170898,34.913361c-2.031769,13.512299 -5.934113,25.592285 -5.934113,25.592285c0,0 2.387085,7.298798 1.806091,12.004303c2.02536,1.20047 10.687286,6.450439 9.583801,10.648926c-1.653687,0.264099 -4.715057,-1.35849 -4.715057,-1.35849c0,0 -1.404053,1.489502 -3.135651,1.715149c-1.274994,0.179932 -2.4646,0.432861 -3.024689,-0.870483c-2.98233,0.646179 -8.27887,-1.739288 -8.27887,-1.739288c0,0 -4.073486,-2.955933 -5.996155,-6.100677c-1.041504,-1.685547 -2.680817,-0.124207 -0.550995,-4.546844c2.130035,-4.421783 -0.218262,-5.2966 -0.218262,-5.2966c0,0 -4.761902,2.27005 -7.932007,2.13327c-1.561035,-0.078339 -2.734497,-2.621002 -2.734497,-2.621002c0,0 0.569366,-5.310333 0.19104,-9.961975c-0.558228,-6.620209 -2.141144,-13.264313 -2.141144,-13.264313c0,0 -3.810913,-4.081573 -6.787018,-15.780334c-2.056824,-8.076935 -2.273163,-19.400772 -3.713348,-27.740555c-1.437134,-8.480164 -4.327972,-14.053894 -4.090576,-13.92392c-6.932861,8.7957 -15.620361,10.883606 -15.620361,10.883606c0,0 1.418121,13.363113 0.222443,24.261719c-1.143402,10.506607 -4.895386,18.557693 -4.895386,18.557693c0,0 -3.963684,9.692139 -5.153595,16.254211c-0.844421,4.670288 0.170715,5.81601 0.943359,6.977905c4.709381,5.492249 25.708466,-4.48349 30.696899,2.69696c0.512726,0.287415 1.595154,1.633362 2.852936,2.395691c1.334503,0.811005 3.979828,4.814392 3.17984,5.267975c-0.662994,0.392792 -2.084961,-0.052246 -2.084961,-0.052246c0,0 0.386139,2.447754 -0.496704,3.341705c-0.942566,0.911072 -3.136017,0.292023 -3.136017,0.292023c0,0 -1.430878,-1.13382 -4.114532,-1.453888c-2.554016,-0.303925 -6.389709,0.201996 -6.389709,0.201996c0,0 -10.418488,-3.785034 -19.612762,2.478241c-4.849304,2.5289 -8.553864,2.544861 -13.462982,3.151764c-2.736633,0.3396 -3.973419,-1.780151 -3.973419,-1.780151c0,0 -0.904114,1.197021 -2.710968,2.233459c-2.062256,1.155029 -4.26004,2.860352 -4.26004,2.860352c0,0 1.031982,1.269379 2.693268,2.168732c1.045563,0.549194 3.019775,0.894318 3.019775,0.894318c0,0 7.632446,1.182098 14.844727,-1.115112c1.194153,-0.070496 9.939423,4.617737 11.073151,5.618652c0.868439,0.751892 -0.841797,3.068909 -2.293396,3.671173c-7.414612,4.382141 -12.665955,-2.092041 -24.541779,2.401245c-10.962769,1.325806 -15.49353,-0.16629 -19.147491,-2.813293c-2.424347,-1.75058 -2.624359,-5.491241 -2.624359,-5.491241c0,0 -3.51059,-4.691101 -3.79126,-9.053192c-0.1185,-1.924194 4.638184,-8.769684 6.624786,-12.261078c1.638275,-2.848694 3.55835,-6.334198 3.55835,-6.334198c0,0 1.536072,-3.24054 2.574493,-7.376434c0.779022,-3.003998 0.922058,-6.54718 1.877441,-9.427002c1.147919,-3.526489 3.179962,-6.313354 3.179962,-6.313354c0,0 -5.499176,-4.357513 -9.713989,-9.810043c-5.211884,-6.770355 -9.326584,-14.891983 -9.326584,-14.891983c0,0 -13.570908,-10.021301 -23.703842,-22.078857c-6.414413,-7.612778 -11.183014,-19.38266 -11.183014,-19.38266c0,0 -2.378098,2.470551 -5.747467,5.598785c-23.954193,22.215912 -25.870667,67.40213 -33.404053,116.366425c-4.898422,31.850433 -16.593994,52.180023 -24.182068,58.776642c-6.906723,6.010376 -15.573166,6.321533 -15.573166,6.321533c0,0 -5.419342,0.090088 -6.036514,-1.025055c-0.594971,-1.03064 3.640076,-3.289276 3.640076,-3.289276c0,0 7.770737,-3.977142 12.643494,-10.271301c20.40947,-26.363312 22.466202,-102.802856 31.610779,-135.213333c4.620132,-16.379608 10.851242,-60.200241 54.317169,-84.117905c31.58551,-17.380722 99.858032,-29.108513 116.960419,-50.789719c3.434631,-4.356728 7.157379,-8.857147 7.157379,-8.857147z" fill-opacity="null" stroke-opacity="null" stroke-width="1.5" stroke="#ffffff" fill="#cc787d"/>
 </g>
</svg>